<?xml version="1.0" encoding="utf-8"?>
<!-- Generator: Adobe Illustrator 19.2.0, SVG Export Plug-In . SVG Version: 6.00 Build 0)  -->
<svg version="1.1" id="Layer_1" xmlns:sketch="http://www.bohemiancoding.com/sketch/ns"
	 xmlns="http://www.w3.org/2000/svg" xmlns:xlink="http://www.w3.org/1999/xlink" x="0px" y="0px" viewBox="0 0 23 23"
	 style="enable-background:new 0 0 23 23;" xml:space="preserve">
<style type="text/css">
	.st0{fill:none;stroke:#876AAA;stroke-width:1.5;stroke-linecap:round;stroke-linejoin:round;stroke-miterlimit:10;}
	.st1{fill:none;stroke:#876AAA;stroke-width:2;stroke-linecap:round;stroke-linejoin:round;stroke-miterlimit:10;}
	.st2{fill:#876AAA;}
	.st3{opacity:0.3357;fill:#876AAA;enable-background:new    ;}
	.st4{fill:none;stroke:#876AAA;stroke-width:2;stroke-linecap:round;stroke-linejoin:round;}
	.st5{fill:none;stroke:#876AAA;stroke-linecap:round;stroke-linejoin:round;}
	.st6{fill:none;stroke:#876AAA;stroke-linecap:round;stroke-linejoin:round;stroke-miterlimit:10;}
	.st7{fill:none;stroke:#876AAA;stroke-linecap:round;stroke-miterlimit:10;}
</style>
<g id="Page-1_2_" sketch:type="MSPage">
	<g transform="translate(2.000000, 2.000000)" sketch:type="MSLayerGroup">
		<rect id="Rectangle-8-Copy" x="4" y="5" sketch:type="MSShapeGroup" class="st3" width="3" height="1">
		</rect>
		<rect id="Rectangle-8" x="4" y="4" sketch:type="MSShapeGroup" class="st2" width="3" height="1">
		</rect>
		<rect id="Rectangle-9-Copy" x="8" y="7" sketch:type="MSShapeGroup" class="st3" width="3" height="1">
		</rect>
		<rect id="Rectangle-9" x="8" y="6" sketch:type="MSShapeGroup" class="st2" width="3" height="1">
		</rect>
		<rect id="Rectangle-10-Copy" x="12" y="5" sketch:type="MSShapeGroup" class="st3" width="3" height="1">
		</rect>
		<rect id="Rectangle-10" x="12" y="4" sketch:type="MSShapeGroup" class="st2" width="3" height="1">
		</rect>
		<rect id="Rectangle-11-Copy" x="8" y="3" sketch:type="MSShapeGroup" class="st3" width="3" height="1">
		</rect>
		<rect id="Rectangle-11" x="8" y="2" sketch:type="MSShapeGroup" class="st2" width="3" height="1">
		</rect>
		<path id="Stroke-9" sketch:type="MSShapeGroup" class="st4" d="M1.9,3.8L8.6,0C9-0.1,10-0.1,10.4,0L17,3.8c0.5,0.4,1,1.3,1,1.9
			v7.6c0,0.6-0.5,1.5-0.9,1.9L10.4,19C10,19.1,9,19.1,8.6,19L2,15.2c-0.5-0.4-1-1.3-1-1.9V5.7C1,5.1,1.5,4.2,1.9,3.8L1.9,3.8z"/>
		<path id="Stroke-11_1_" sketch:type="MSShapeGroup" class="st5" d="M18,9l-7,4c-0.8,0.1-2.2,0.1-3,0L1,9"/>
	</g>
</g>
</svg>
