<?xml version="1.0" encoding="utf-8"?>
<!-- Generator: Adobe Illustrator 19.2.0, SVG Export Plug-In . SVG Version: 6.00 Build 0)  -->
<svg version="1.1" id="Layer_1" xmlns:sketch="http://www.bohemiancoding.com/sketch/ns"
	 xmlns="http://www.w3.org/2000/svg" xmlns:xlink="http://www.w3.org/1999/xlink" x="0px" y="0px" viewBox="0 0 23 23"
	 style="enable-background:new 0 0 23 23;" xml:space="preserve">
<style type="text/css">
	.st0{fill:none;stroke:#876AAA;stroke-width:1.5;stroke-linecap:round;stroke-linejoin:round;stroke-miterlimit:10;}
	.st1{fill:none;stroke:#876AAA;stroke-width:2;stroke-linecap:round;stroke-linejoin:round;stroke-miterlimit:10;}
	.st2{fill:#876AAA;}
	.st3{opacity:0.3357;fill:#876AAA;enable-background:new    ;}
	.st4{fill:none;stroke:#876AAA;stroke-width:2;stroke-linecap:round;stroke-linejoin:round;}
	.st5{fill:none;stroke:#876AAA;stroke-linecap:round;stroke-linejoin:round;}
	.st6{fill:none;stroke:#876AAA;stroke-linecap:round;stroke-linejoin:round;stroke-miterlimit:10;}
	.st7{fill:none;stroke:#876AAA;stroke-linecap:round;stroke-miterlimit:10;}
</style>
<g>
	<g>
		<path class="st1" d="M7.1,4l3.9-2.2c0.3-0.2,0.7-0.2,1.1,0L15.9,4c0.3,0.2,0.5,0.6,0.5,0.9v4.5c0,0.4-0.2,0.7-0.5,0.9L12,12.6
			c-0.3,0.2-0.7,0.2-1.1,0l-3.9-2.2c-0.3-0.2-0.5-0.6-0.5-0.9V5C6.5,4.6,6.7,4.2,7.1,4z"/>
		<path class="st6" d="M14.1,5.9l-2.4,1.4c-0.2,0.1-0.4,0.1-0.6,0L8.8,5.9"/>
	</g>
	<g>
		<path class="st1" d="M2.1,12.6L6,10.4c0.3-0.2,0.7-0.2,1.1,0l3.9,2.2c0.3,0.2,0.5,0.6,0.5,0.9V18c0,0.4-0.2,0.7-0.5,0.9l-3.9,2.2
			c-0.3,0.2-0.7,0.2-1.1,0L2.1,19c-0.3-0.2-0.5-0.6-0.5-0.9v-4.5C1.6,13.2,1.8,12.8,2.1,12.6z"/>
		<path class="st6" d="M9.2,14.5l-2.4,1.4c-0.2,0.1-0.4,0.1-0.6,0l-2.4-1.4"/>
	</g>
	<g>
		<path class="st1" d="M12.1,12.6l3.9-2.2c0.3-0.2,0.7-0.2,1.1,0l3.9,2.2c0.3,0.2,0.5,0.6,0.5,0.9V18c0,0.4-0.2,0.7-0.5,0.9L17,21.2
			c-0.3,0.2-0.7,0.2-1.1,0L12.1,19c-0.3-0.2-0.5-0.6-0.5-0.9v-4.5C11.5,13.2,11.7,12.8,12.1,12.6z"/>
		<path class="st6" d="M19.1,14.5l-2.4,1.4c-0.2,0.1-0.4,0.1-0.6,0l-2.4-1.4"/>
	</g>
</g>
</svg>
