<?xml version="1.0" encoding="utf-8"?>
<!-- Generator: Adobe Illustrator 19.2.0, SVG Export Plug-In . SVG Version: 6.00 Build 0)  -->
<svg version="1.1" id="Layer_1" xmlns:sketch="http://www.bohemiancoding.com/sketch/ns"
	 xmlns="http://www.w3.org/2000/svg" xmlns:xlink="http://www.w3.org/1999/xlink" x="0px" y="0px" viewBox="0 0 23 23"
	 style="enable-background:new 0 0 23 23;" xml:space="preserve">
<style type="text/css">
	.st0{fill:none;stroke:#876AAA;stroke-width:1.5;stroke-linecap:round;stroke-linejoin:round;stroke-miterlimit:10;}
	.st1{fill:none;stroke:#876AAA;stroke-width:2;stroke-linecap:round;stroke-linejoin:round;stroke-miterlimit:10;}
	.st2{fill:#876AAA;}
	.st3{opacity:0.3357;fill:#876AAA;enable-background:new    ;}
	.st4{fill:none;stroke:#876AAA;stroke-width:2;stroke-linecap:round;stroke-linejoin:round;}
	.st5{fill:none;stroke:#876AAA;stroke-linecap:round;stroke-linejoin:round;}
	.st6{fill:none;stroke:#876AAA;stroke-linecap:round;stroke-linejoin:round;stroke-miterlimit:10;}
	.st7{fill:none;stroke:#876AAA;stroke-linecap:round;stroke-miterlimit:10;}
</style>
<polyline class="st7" points="5.4,8.2 11.5,11.5 11.5,18.8 "/>
<line class="st7" x1="11.5" y1="11.5" x2="17.7" y2="8"/>
<path class="st1" d="M3.9,6l6.6-3.8c0.6-0.4,1.4-0.4,2,0L19.1,6c0.6,0.4,1,1,1,1.7v7.6c0,0.7-0.4,1.4-1,1.7l-6.6,3.8
	c-0.6,0.4-1.4,0.4-2,0L3.9,17c-0.6-0.4-1-1-1-1.7V7.7C2.9,7,3.3,6.3,3.9,6z"/>
<polygon class="st6" points="13.4,12.6 15.5,11.4 17.6,12.6 17.6,15 15.5,16.2 13.4,15 "/>
<polygon class="st6" points="5.4,12.5 7.5,11.3 9.5,12.5 9.5,14.9 7.5,16.1 5.4,14.9 "/>
<polygon class="st6" points="9.4,5.7 11.5,4.5 13.6,5.7 13.6,8.1 11.5,9.3 9.4,8.1 "/>
</svg>
