<svg xmlns="http://www.w3.org/2000/svg" width="23" height="23" viewBox="0 0 23 23">
  <g fill="none" fill-rule="evenodd">
    <path stroke="#896AAD" stroke-linecap="round" stroke-linejoin="round" d="M21.9305744,9.57381767 C22.3438282,10.2108322 22.5438466,10.9697627 22.4913948,11.7426882 C22.450753,12.3458075 22.2566194,12.9227415 21.9322957,13.422924 C22.3358392,14.0449091 22.5353052,14.7857561 22.4948327,15.5450647 C22.4301007,16.7376953 21.7765641,17.8080332 20.7475215,18.4058996 L14.7447797,21.8965229 C14.0603901,22.29366 13.2860029,22.5 12.5,22.5 C11.7136238,22.5 10.93923,22.2936916 10.2543761,21.8962848 L4.25261289,18.4059777 C3.22797318,17.810571 2.574936,16.7459254 2.50614193,15.559633 C2.46182667,14.7963138 2.66154298,14.0499821 3.06835761,13.4237448 C2.73439807,12.9091885 2.53852479,12.3140111 2.50514123,11.6914967 C2.46471062,10.9329714 2.66396203,10.1930347 3.06730704,9.57100512 C2.69858805,9.00456129 2.5,8.34166677 2.5,7.64773775 C2.5,6.37578307 3.15673719,5.23059177 4.25251197,4.59309659 L10.2546709,1.10343452 C11.6403819,0.298842319 13.3601623,0.298842319 14.7451287,1.10357051 L20.747609,4.59316695 C21.8432628,5.23059177 22.5,6.37578307 22.5,7.64773775 C22.5,8.34235236 22.3005324,9.00624971 21.9305744,9.57381767 Z"/>
    <path fill="#876AAA" d="M8.26370605,8.40387856 C8.4766289,8.20315586 8.58823529,7.91427259 8.58823529,7.62538933 C8.58823529,7.32469885 8.4766289,7.03660273 8.26370605,6.82407281 C7.83944343,6.42498884 7.09065156,6.42498884 6.68776037,6.83666717 C6.47562906,7.03660273 6.35294118,7.32469885 6.35294118,7.62538933 C6.35294118,7.91427259 6.47562906,8.20315586 6.68776037,8.40387856 C6.88960173,8.61483419 7.17930345,8.73684211 7.47058824,8.73684211 C7.76108149,8.73684211 8.05157474,8.61483419 8.26370605,8.40387856 Z M19.8826897,16.903536 L13.880344,20.3939291 C13.029197,20.8883067 11.9712374,20.8883067 11.119656,20.3939291 L5.11687582,16.903536 C4.58854774,16.5968469 4.26529438,16.0700941 4.23010147,15.4589034 C4.20316369,14.9920885 4.35566629,14.5467112 4.6424233,14.2028344 L10.5057353,17.6118521 C11.1209594,17.9692915 11.8100452,18.1482299 12.5,18.1482299 C13.1895203,18.1482299 13.8786061,17.9692915 14.4938302,17.6118521 L20.3584457,14.2019594 C20.6438992,14.5440862 20.7950984,14.987276 20.770333,15.4510284 C20.736878,16.0657191 20.4136247,16.5955344 19.8826897,16.903536 L19.8826897,16.903536 Z M5.11687582,6.09547966 L11.119656,2.60596149 C11.970803,2.11114641 13.0287626,2.11114641 13.880344,2.60596149 L19.8826897,6.09547966 C20.4396935,6.41923135 20.7725054,6.99979687 20.7725054,7.64773775 C20.7725054,8.29567862 20.4396935,8.87580664 19.8826897,9.19999583 L13.880344,12.6899515 C13.029197,13.1843291 11.9712374,13.1843291 11.119656,12.6899515 L5.11687582,9.19999583 C5.04735897,9.15974562 4.99261444,9.10418283 4.93048376,9.05605758 C4.91658039,9.04643253 4.9052839,9.03418247 4.89051157,9.02543242 C4.47732078,8.68855567 4.22706011,8.19767811 4.22706011,7.64773775 C4.22706011,6.99979687 4.55987204,6.41923135 5.11687582,6.09547966 L5.11687582,6.09547966 Z M5.11687582,13.0517659 C4.58594086,12.7428893 4.26225302,12.213074 4.22966699,11.5983833 C4.20490161,11.1346309 4.35610077,10.6923161 4.64111986,10.3501893 L10.5057353,13.7596446 C11.1209594,14.1170839 11.8100452,14.2964599 12.5,14.2964599 C13.1895203,14.2964599 13.8786061,14.1170839 14.4938302,13.7596446 L20.3549698,10.3519393 C20.6456372,10.7015037 20.8007466,11.1525685 20.7690296,11.6246335 C20.7342711,12.1303861 20.493569,12.5687634 20.1120953,12.8789525 C20.0990609,12.88639 20.0881989,12.8977651 20.0751645,12.9065151 C20.0117304,12.9559529 19.9539445,13.0106407 19.8826897,13.0517659 L13.880344,16.5417216 C13.029197,17.0365366 11.9712374,17.0365366 11.119656,16.5417216 L5.11687582,13.0517659 Z M22,7.64773775 C22,6.55354455 21.4376948,5.57310194 20.4961759,5.02534909 L14.4938302,1.53583092 C13.2642509,0.821389695 11.7361836,0.821389695 10.5057353,1.53583092 L4.50382408,5.02534909 C3.56230521,5.57310194 3,6.55354455 3,7.64773775 C3,8.37005401 3.24904489,9.0394325 3.6861321,9.57056026 C3.21167959,10.1480633 2.96315684,10.8905046 3.00443247,11.6648837 C3.03962538,12.3211371 3.2842378,12.9327653 3.68700106,13.4240803 C3.20950719,14.0042084 2.96011548,14.7523373 3.00530143,15.5306538 C3.06439076,16.5495966 3.6244359,17.4626639 4.50382408,17.9736665 L10.5057353,21.4640597 C11.1209594,21.8210616 11.8100452,22 12.5,22 C13.1895203,22 13.8786061,21.8210616 14.4938302,21.4640597 L20.4961759,17.9736665 C21.3794744,17.4604764 21.939954,16.5425966 21.9955675,15.5179662 C22.0368432,14.7435872 21.7883204,14.0002708 21.3138679,13.4232053 C21.7070726,12.9432653 21.9495126,12.3473872 21.9925262,11.7090714 C22.0459672,10.9215673 21.7948376,10.1620633 21.3116955,9.57318528 C21.7496517,9.04118251 22,8.37092902 22,7.64773775 Z"/>
  </g>
</svg>
