<svg id="Layer_1" xmlns="http://www.w3.org/2000/svg" width="23" height="23" viewBox="0 0 23 23"><style>.st0{fill:none;stroke:#876aaa;stroke-width:2;stroke-linecap:round;stroke-linejoin:round;stroke-miterlimit:10}.st1{fill:#876aaa}</style><circle class="st0" cx="11.5" cy="11.7" r="9.6"/><path class="st1" d="M13 14.9h.9c-.7 1.6-1.8 2.4-3.1 2.4-.5 0-.9-.1-1.2-.3-.3-.2-.4-.6-.4-1 0-.3.1-.7.3-1.4l1-3c.1-.2.1-.4.1-.4V11h-.2c-.3 0-.6.4-1 1.1h-.8c.7-1.6 1.8-2.4 3.1-2.4.5 0 .9.1 1.1.4.3.2.4.6.4 1 0 .3-.1.8-.4 1.4l-1 2.7c-.1.4-.2.6-.2.7 0 .1 0 .1.1.1s.1.1.2.1.3-.1.6-.4c.2-.4.4-.6.5-.8zM14.4 7.1c0 .4-.1.7-.4 1-.3.3-.6.4-1 .4s-.7-.1-1-.4c-.3-.3-.4-.6-.4-1s.1-.7.4-1 .6-.4 1-.4.7.1 1 .4.4.7.4 1z"/></svg>