<svg xmlns="http://www.w3.org/2000/svg" width="1634" height="458" viewBox="0 0 1634 458">
  <g fill="none" fill-rule="evenodd" stroke="#E3E7EF" stroke-linecap="round" stroke-linejoin="round" stroke-width="2" transform="translate(85 16)">
    <polyline points="916.6 114.4 788.7 .1 776.3 7.4 763.7 .1 697.1 59.6"/>
    <path d="M697.1 85.4L741.2 45M674.5 106.1L697.1 85.4M658 121.2L674.5 106.1M770.4 19.5L751.2 36.3C757.9 41.6 758.2 51.6 751.9 57.3L707.1 97.7 725.7 108.9 738.2 101.7C746.2 97.1 756.1 97.1 764.1 101.7L775.8 108.5 788.7 101.4C796.6 97 806.3 97.1 814.2 101.7L826.8 109 838.2 102.2C846.4 97.3 856.6 97.3 864.7 102.2L876.1 109M668.1 102.2C660.2 95.1 649.6 90.7 638.1 90.7 615.9 90.7 597.5 106.8 593.9 127.9M619.1 153.1L594.2 138.3 570.7 151.9C569.5 152.6 569.5 154.3 570.6 155L581.4 161.7 594.2 153.7"/>
    <path d="M788.2 26.2L780.5 32.9C778.2 34.9 775.3 36.2 772.3 36.5L767.4 37.1M899.1 53.1C898.5 49.8 895.4 47.6 892.1 48.1 887.4 48.9 884.2 53.4 885 58.2 886.2 65 892.6 69.5 899.4 68.3 909.1 66.6 915.5 57.4 913.9 47.7 911.5 33.9 898.4 24.6 884.5 27"/>
    <path d="M907.7 93.4C908.7 92.4 910.3 90.5 911 89.3 914.2 91.1 917.8 92.1 921.7 92.1 933.7 92.1 943.5 82.4 943.5 70.3 943.5 58.2 933.8 48.5 921.7 48.5 919.1 48.5 916.6 49 914.3 49.8 913.1 36.9 902.3 26.8 889 26.8 884.2 26.8 879.8 28.1 876 30.4 876 30.4 867.8 11.6 849.7 11.9 841.3 12.1 833.8 15.7 828.9 21.7M872.2 126L795.2 126C791.4 126 787.6 129.2 787.6 133L787.6 133.5C787.6 137.3 791.3 139.8 795.2 139.8L832.7 139.8C836.2 139.8 838.3 143.3 838.3 146.8L838.3 148.5C838.3 152 836.1 155.1 832.7 155.1L757.8 155.1C754 155.1 750.7 157.9 750.7 161.7L750.7 162.8C750.7 166.6 753.9 168.9 757.8 168.9L849.9 168.9C853.4 168.9 856.3 172.5 856.3 176L856.3 177.5C856.3 181 853.4 184.2 849.9 184.2L768 184.2C764.5 184.2 761.5 186.6 761.5 190L761.5 190.6C761.5 194.1 764.5 196.4 768 196.4L800 196.4M884.5 126L938.3 126M798.5 335.6L809.2 328.7 817.3 333.4C819.2 334.5 821.6 334.5 823.5 333.4L831.6 328.7 839.7 333.4C841.6 334.5 844 334.5 845.9 333.4L854 328.7 862.1 333.4M821.8 318.6L832.5 311.7 840.6 316.4C842.5 317.5 844.9 317.5 846.8 316.4L854.9 311.7 863 316.4C864.9 317.5 867.3 317.5 869.2 316.4L877.3 311.7 885.4 316.4M598.6 175.7L613.5 167C619.8 163.3 627.6 163.3 633.9 166.8L707.7 209.1C711.1 211 713.2 214.6 713.2 218.5L713.2 248.3M764.7 142.4L753.3 135.6C745.1 130.7 734.9 130.7 726.8 135.6L715.4 142.4 702.8 135.1C694.9 130.6 685.3 130.5 677.3 134.8L664.4 141.9M664.3 142.4L652.9 135.6C644.7 130.7 634.5 130.7 626.4 135.6"/>
    <polygon points="731.9 244.4 732 259.6 744.2 251.5"/>
    <polygon points="828.9 228.3 828.8 213.2 816.6 221.3"/>
    <path d="M700.7 150.6L715.4 142.4M699 328.4C691.3 317.7 693.8 301.7 706.3 294.5L761.5 262.6C768.6 258.5 768.6 248.3 761.5 244.2L746 235.2C739.1 231.2 739 221.2 745.8 217 749.1 215 749 210.2 745.7 208.3L688.3 174.7M806.7 242.1L793.3 235.2C786.4 231.2 786.3 221.2 793.1 217L825.8 200.4M738.5 173.8L713.2 188.5"/>
    <polyline points="1021.6 142 975.8 115.6 942.3 135.5"/>
    <path d="M896.1,181.7 C894.2,180.7 892,180.1 889.7,180.2 C882.7,180.4 877.2,186.2 877.4,193.1 C877.4,193.9 877.5,194.6 877.7,195.3 C874.7,194 871.4,193.3 867.9,193.4 C855.6,193.8 846,203.8 846.3,215.9 C846.7,228 856.9,237.5 869.2,237.1 C877.4,236.9 884.5,232.2 888.1,225.6"/>
    <path d="M910.3 157.5C896.6 165.2 892 182.4 899.9 195.8 905.4 205.2 917.7 208.5 927.2 203 933.9 199.2 936.2 190.8 932.4 184.2 929.7 179.6 923.7 178 919 180.6 915.7 182.5 914.6 186.6 916.5 189.8M983.8 232.3C985.5 230.4 986.8 228.2 987.8 225.7 990.8 217.9 986.8 209.1 979 206 973.5 203.8 967.4 206.5 965.4 211.9 963.9 215.7 965.9 220 969.7 221.6 972.4 222.7 975.4 221.4 976.4 218.7M858.4 234.7C869.3 240.2 882.7 235.9 888.3 225.1 892.2 217.6 889.2 208.4 881.5 204.5 876.1 201.8 869.6 203.9 866.8 209.2 864.9 212.9 866.4 217.4 870.1 219.3 872.7 220.6 875.9 219.6 877.3 217"/>
    <path d="M995.5 202.3C992.8 188.6 980.7 178.3 966.2 178.3 961.5 178.3 957.1 179.4 953.1 181.3 952.6 166 940 153.7 924.6 153.7 908.8 153.7 896.1 166.5 896.1 182.2M889.2 226.1C894.8 235.7 905.2 242.2 917.1 242.2 928.2 242.2 938 236.6 943.8 228 949.3 234.2 957.3 238.2 966.3 238.2 972.9 238.2 977.9 236.9 984.1 232.4M963.5 136.7L963.5 164.6 966.7 163.2C979 159.8 989.6 170.1 989.6 170.1L989.6 136.8"/>
    <polyline points="1004.5 144 977.5 128.9 952 143.5"/>
    <polyline points="878.5 351.1 884.3 347.8 884.3 362.5 858.7 347.4 846.5 355 858.8 362.5 870 355.4"/>
    <path d="M889,153.1 L860,153.1 C856.3,153.1 852.9,150.2 852.9,146.5 L852.9,146.3 C852.9,142.6 856.4,139.2 860,139.2 L913.3,139.2"/>
    <polyline points="603 217.7 613.4 211.7 623.9 217.6"/>
    <polyline points="603.3 205.3 613.8 199.5 613.8 271.3"/>
    <path d="M624.1,205.6 L613.4,199.5"/>
    <polyline points="603.3 190.8 613.8 184.9 613.8 199.7"/>
    <path d="M624.1 190.9L613.4 184.9M658.7 209.1L648 203"/>
    <polyline points="603 229.5 613.6 223.4 624.1 229.8"/>
    <polyline points="674.1 238.7 684.6 232.7 695 238.6"/>
    <polyline points="674.7 226.2 685.2 220.5 685.2 267.9"/>
    <path d="M695.2,226.6 L684.6,220.5"/>
    <polyline points="674.1 250.5 684.8 244.3 695.3 250.7"/>
    <polyline points="637.8 221.2 648.3 215.2 658.7 221.1"/>
    <polyline points="637.5 208.8 648 203 648 254.9"/>
    <polyline points="637.8 233 648.4 226.8 658.9 233.2"/>
    <polygon points="1015.1 334.5 1002.6 341.7 990.3 334.5 1002.7 327.2"/>
    <path d="M998.4,429 L971.2,414 C966.2,411.3 963.2,406.1 963.2,400.4 L963.3,376.9"/>
    <polygon points="922.7 315.5 908.9 323.2 895 315.5 895 299.7 908.7 291.8 922.7 299.7"/>
    <path d="M908.9,362.5 L908.9,322.3"/>
    <polyline points="934.2 292.1 920.6 284.8 920.7 268.6 934.1 260.7 947.8 268.6 947.5 284.3 934.4 291.9 934.4 361"/>
    <polyline points="965.3 346.7 951.7 339.4 951.8 323.2 965.1 315.2 978.9 323.2 978.6 338.9 965.5 346.5"/>
    <path d="M976.5,371 L976.5,396.7 C976.5,400 978.4,403.1 981.3,404.6 L1012.9,421.1"/>
    <polygon points="947.8 299.8 947.5 315.5 934.9 307.2"/>
    <polygon points="896.3 342.9 896.6 327.2 909.2 335.6"/>
    <path d="M990.4 361.9L990.4 334.6M755.3 335.4C739 326 738.9 302.5 755.1 293M777.6 337.4C770.5 333.2 766.6 326.5 765.7 319.3M796.9 335.1C783.9 327.5 784 308.7 797 301.2L798.9 300.1"/>
    <path d="M768.1,274.1 L730.6,296.9 C714.4,306.4 714.4,329.8 730.6,339.3 L731,339.5"/>
    <polyline points="668.9 279.1 684.1 287.3 722.9 265.8"/>
    <polyline points="952.6 340 990.4 360.6 990.4 384.4"/>
    <path d="M986.5,304.7 L971.4,304.7 C967.5,304.7 964.8,301.8 964.8,297.9 L964.8,298.1 C964.8,294.2 967.4,290.9 971.4,290.9 L1002.2,290.9 C1005.8,290.9 1009,288.6 1009.5,285 C1010.1,280.7 1006.8,277 1002.5,277 L960.6,277"/>
    <circle cx="703.9" cy="391" r="6.4"/>
    <polyline points="681 335.7 681 301.8 658.8 289.3 637.1 301.3"/>
    <polyline points="680.8 302.3 659.4 314.2 636.4 301.8 636.4 381.9"/>
    <polyline points="704.1 384.1 704.1 349 681.8 336.7 659.5 349.3 659.5 439.4"/>
    <polyline points="635.9 362.5 616.4 374.3 616.4 398.8"/>
    <path d="M659.5,301.9 L659.5,263.4"/>
    <polygon points="614.9 343.8 614.9 357.1 625.8 350.1"/>
    <polygon points="571.8 190.2 571.8 203.5 582.7 196.5"/>
    <polyline points="638.9 467.2 638.9 412.4 616.8 399.7 594.8 412.4 594.8 426.9"/>
    <polyline points="594.8 412.4 616.8 425.1 638.9 412.4"/>
    <path d="M616.8,425.1 L616.8,444.3"/>
    <polyline points="625.4 332.9 625.5 294.5 603.3 281.8 581 294.5 581 322.9"/>
    <path d="M603.6,307.7 L603.6,335.4"/>
    <polyline points="590.3 391.9 590.3 361.3 570 348.7 548.7 361"/>
    <polyline points="548.8 361.8 568.7 373.1 568.7 409.2"/>
    <path d="M547.4 339.8L566.6 328.2C573.6 323.9 582.4 323.7 589.6 327.6L602.4 334.5M667.1 163.1L677.9 169M865 273.4L861.8 275.2C857.7 277.5 852.6 274.5 852.6 269.8L852.6 266.2 849.4 264.4C845.3 262 845.3 256.1 849.4 253.7L849.5 253.7C851.4 252.6 853.7 252.6 855.6 253.7L865.2 259 865.1 255.7C865 250.9 870.3 247.8 874.4 250.2L877.3 251.9 880.5 250.1C884.6 247.7 889.8 250.7 889.8 255.5L889.8 259 893.3 257C897.4 254.7 902.5 257.6 902.6 262.3L902.7 266.1 905.9 268C909.9 270.4 909.9 276.3 905.8 278.7 903.9 279.8 901.6 279.8 899.7 278.8L889.9 273.5M855 299L817.3 276.8M834.8 254.8L825 249.1 821.4 247.2C816.8 244.7 811.2 248.2 811.4 253.4L811.5 257 797.8 264.8 797.8 261.1C797.8 255.8 792.1 252.5 787.6 255.2 785.6 256.4 784.4 258.4 784.3 260.7L783.9 268.4C783.8 270.8 785 273.1 787 274.4L797.1 280.8 797.1 284.8C797.1 290 802.8 293.3 807.3 290.7L810.9 288.6 810.9 291.2C810.9 297.2 820.8 299.9 825.9 296.7L838.5 304"/>
    <polyline points="879.5 270.4 879.3 284.6 855 299 854.8 311.2"/>
    <path d="M830.1 284.3L830.1 269.9M879.3 284.6L892.5 291.5M766 400.7L766 479.4M766 371.5L766 390.8M798.6 357.3L798.6 476.1M818.2 357L818.2 439M838 370.7L838 464.3M749.4 352.3L749.4 451.6M729.4 445.3L705.9 445.3 705.9 438.8C705.9 434.9 703.6 431.3 699.9 429.4L681.9 419.9 681.9 362.6 703.1 350M850.6 445.3L874 445.3 874 425.8C874 422.2 876 418.8 879.3 416.7L886 412.7 885.9 382C885.9 378.1 888.2 374.5 891.9 372.5L905.9 365.2C908.4 363.9 911.1 363.2 913.9 363.2L961.9 363.2"/>
    <path d="M892.1,445.3 L892.1,425.8 C892.1,422.2 894.1,418.8 897.4,416.7 L904.1,412.7 L904,382 C904,378.1 906.3,374.5 910,372.5 L924,365.2 C926.5,363.9 929.2,363.2 932,363.2"/>
    <path d="M910.1 433.2L910.1 425.8C910.1 422.2 912.1 418.8 915.4 416.7L922.1 412.7 922 382C922 378.1 924.3 374.5 928 372.5L942 365.2C944.5 363.9 947.2 363.2 950 363.2M839.4 386.2L851.9 392.7C855.6 394.7 857.9 398.3 857.9 402.2L857.8 415.2M782.2 348.1L782.2 510.1M730.2 358L730.2 428.4M767.4 215.1C762.7 220.6 764 229 770.1 232.7L779.9 238.7M982.7 437L963.5 425.9C959.1 423.3 953.6 423.3 949.2 425.9L939.3 431.6 875.4 469.6 866.8 474.7 855.7 468.3C852.9 466.7 852.8 462.6 855.5 460.9 856.9 460 858.6 460 860 460.8L866.4 464.5 872.7 460.7C874.1 459.9 875.7 459.9 877.1 460.7 880.1 462.4 880.2 466.8 877.2 468.6L875.4 469.7M677.4 434.2L685.8 438.9M666.2 437L655.3 444.5M714.6 347.9L726.3 353.3C729.8 354.9 733.8 354.9 737.3 353.3L743.5 350.4C747 348.8 751 348.8 754.5 350.4L760.7 353.3C764.2 354.9 768.2 354.9 771.7 353.3L777.9 350.4C781.4 348.8 785.4 348.8 788.9 350.4L795.1 353.3C798.6 354.9 802.6 354.9 806.1 353.3L812.3 350.4C815.8 348.8 819.8 348.8 823.3 350.4L835 355.8M763.9 309.5C763.9 309.5 762.5 297 779.9 287.3"/>
    <path d="M46.5,0.7 L3.8,0.7 C2,0.7 0.5,2.2 0.5,4 L0.5,11.4 C0.5,13.2 2,14.7 3.8,14.7 L31.3,14.7" transform="translate(956 250)"/>
    <path d="M525.3 141.1L589.6 183.1M280.8 152.5L335.3 152.5C339 152.5 341.6 156.5 341.6 160.2L341.6 160.7C341.6 164.4 339 167.3 335.3 167.3L308.3 167.3C305 167.3 301.6 170.1 301.6 173.5L301.6 175.2C301.6 178.5 304.9 180.7 308.3 180.7L383.1 180.7"/>
    <polyline points="184.7 398.1 146.4 421.5 125.4 409.3 93.8 426.9"/>
    <circle cx="159.1" cy="264.4" r="6.1"/>
    <path d="M74.7 228.2L74.7 251.8M137.6 217L137.7 253.5"/>
    <polyline points="181.9 324.9 186.1 250.7 181.5 197.8 181.5 155.5"/>
    <polyline points="202.2 155.5 202.2 197.8 197.9 250.8 202.3 312.8"/>
    <path d="M185.9 250.3L197.8 250.3M208.1 197L177 197M191.8 207.3L191.8 158.4M159.3 339.3L234.7 295.1M226.8 282.5L214.7 275.7M117.7 370.4L117.7 320M126.6 370.4L126.6 337.8"/>
    <polyline points="96.4 326.1 96.4 264.9 75.2 252.7 53.9 264.9 53.9 314.8"/>
    <polyline points="53.9 264.9 75.2 277.2 96.4 264.9"/>
    <path d="M75.2,277.2 L75.1,348.7"/>
    <circle cx="53.9" cy="321" r="6.1"/>
    <path d="M107.3 302.2L107.3 377.8M135.5 318.5L157.8 318.5C160.9 318.5 163.7 316.6 163.7 313.4L163.7 313.1C163.7 310 160.9 306.6 157.8 306.6L129.8 306.6C126.7 306.6 123.7 304.9 123.7 301.8L123.7 300.4C123.7 297.3 126.7 294.7 129.8 294.7L168.4 294.7C171.5 294.7 174.2 292.2 174.2 289.1L174.2 288.1C174.2 285 171.6 282.9 168.4 282.9L110.4 282.9"/>
    <polyline points="137 339.3 137 350.9 148.5 345.2"/>
    <circle cx="311.1" cy="283.5" r="6.1"/>
    <polyline points="289.3 280.3 267.9 290.7 247.2 278.9 268.2 267.9 289.4 279.3"/>
    <path d="M268.9,317 L268.9,291.8"/>
    <polyline points="329.7 317.6 310.5 330 290.1 317.4 310.9 305.2 331.2 317.4 331.2 328.9"/>
    <path d="M289.7 280L289.7 327.4M246.7 311.1L246.7 280M310.4 290.3L310.4 317M310.4 376.3L310.4 330.4M295.2 266.6C302.9 266.6 309.6 262.4 313.1 256.1 314.9 256.5 316.7 256.7 318.6 256.7 334.1 256.7 346.7 244 346.7 228.3 346.7 212.6 334.1 199.9 318.6 199.9 314.6 199.9 310.7 200.8 307.2 202.3 303.2 195.2 295.7 190.4 287.1 190.4 280.6 190.4 274.8 193.1 270.6 197.5 266 191.4 258.7 187.5 250.5 187.5 236.5 187.5 225.2 198.8 225.2 212.8 225.2 216.4 225.9 219.8 227.3 222.9 220.8 226.7 216.4 233.8 216.4 242 216.4 254.1 226.1 264 238.2 264 239.7 264 241.2 263.8 242.7 263.5"/>
    <path d="M275.3 193.7C265.2 199.8 262.1 212.9 268.2 222.9 272.5 230 281.6 232.2 288.7 228 293.6 225 295.2 218.6 292.2 213.6 290.1 210.1 285.6 209 282.2 211.1 279.8 212.6 279 215.7 280.5 218.1M241.8 263.7C251.5 262 258 252.8 256.3 243.1 255.1 236.3 248.7 231.8 241.9 232.9 237.2 233.7 234 238.2 234.8 243 235.4 246.3 238.5 248.6 241.9 248 244.2 247.6 245.8 245.4 245.4 243.1M310.1 239.9C309.8 241.7 311.1 243.5 312.9 243.8 315.5 244.2 318 242.4 318.4 239.8 319 236.1 316.4 232.5 312.7 231.9 307.3 231 302.3 234.7 301.5 240 300.3 247.6 305.5 254.8 313.1 256M613.7 259.2C609.3 259.1 605.1 260 601.3 261.7 601.5 260.8 601.6 259.8 601.6 258.9 601.9 250 594.9 242.6 586 242.3 583 242.2 580.3 242.9 577.8 244.2 577.4 225 562 209.3 542.7 208.7 526 208.2 511.6 219.1 506.9 234.4"/>
    <path d="M559.8 213.7C577.1 223.7 583 245.7 573 263.1 566 275.2 550.5 279.4 538.4 272.4 529.9 267.5 527 256.7 531.9 248.2 535.3 242.3 542.9 240.2 548.9 243.6 553.1 246 554.5 251.3 552.1 255.5M131.5 379.6L86.3 406.6C75.3 413.2 61.5 413.3 50.5 406.8M297.4 345.1L261 324.5C249.8 318 236.1 318 224.9 324.4L200 338.7 178.2 351.8"/>
    <path d="M263 342.9L254.8 347.7C252.7 348.9 250.2 348.9 248.2 347.6L243.6 344.8C241.5 343.5 238.9 343.5 236.8 344.8L231.9 347.8C229.9 349 227.3 349.1 225.3 347.9L220 344.8C218 343.6 215.5 343.6 213.5 344.8L208.5 347.7C206.5 348.9 204.1 348.9 202.1 347.8L196.2 344.5C193.7 343.1 190.5 343.5 188.5 345.6M16.6 348.9C20.1 348.9 23.4 350.6 25.5 353.4L44.1 378.1 31.4 404.3 16.9 411.6.5 415.8M31.4 404.4L17.2 389M9.7 397.1L30.4 404.7M84.7 393.5L58.6 353"/>
    <polyline points="99 344.2 58.6 353 44.1 378.2"/>
    <path d="M51 365.9L51 365.1C51 361.6 47.2 359.5 44.2 361.4L43.3 362 41.6 361C38.6 359.2 34.7 361.3 34.7 364.8L34.7 365.9M331.2 389.7L292.3 389.7C288.6 389.7 285.2 392.9 285.2 396.5L285.2 397.1C285.2 400.8 288.6 403 292.3 403L354.5 403C358.2 403 360.8 406.7 360.8 410.4L360.8 410.9C360.8 414.6 358.1 417.8 354.5 417.8L233.5 417.8C229.8 417.8 227.5 420.5 227.5 424.1L227.5 425C227.5 428.7 229.9 431.2 233.5 431.2L310.2 431.2C314.8 431.2 317.9 435.3 317.9 440L317.9 439.7C317.9 444.3 314.8 447.5 310.2 447.5L270.5 447.5"/>
    <path d="M282.6,361.5 L141.3,361.5 C137.5,361.5 134,364.9 134,368.7 L134,369 C134,372.6 137.2,374.9 140.8,374.9 L224.5,374.9 C228.3,374.9 231.8,378.4 231.8,382.2 L231.8,382.6 C231.8,386.4 228.3,389.6 224.5,389.6 L205.5,389.6 C201.6,389.6 197.7,392.4 197.7,396.3 L197.7,396.7 C197.7,400.6 201.6,403 205.5,403 L267.9,403 C271.4,403 274.7,401 274.7,397.5 L274.7,396.2 C274.7,392.4 271.2,389.7 267.4,389.7 L251.9,389.7 C248.1,389.7 245.1,386.5 245.1,382.7 L245.1,382.3 C245.1,378.5 248.2,374.8 251.9,374.8 L282.1,374.8 C285.6,374.8 288.7,372.6 289.2,369.1 C289.9,365 286.6,361.5 282.6,361.5 Z"/>
    <polyline points="392.1 363.2 404.2 356.9 415.8 363.8"/>
    <polyline points="134 405.5 146.7 398.2 159.5 405.7"/>
    <path d="M147.4 398.6L147.4 408.9M333.6 457.1C334.1 441.7 347 429.5 362.4 430 365.7 430.1 368.8 430.8 371.7 431.9 371.7 431.4 371.7 430.8 371.7 430.3 372.2 414.9 385.1 402.7 400.5 403.2 403.8 403.3 407 404 409.9 405.1 412.1 383.4 430.7 366.8 452.9 367.4 475.3 368.1 493.1 386.3 493.6 408.5 496.4 407 499.6 406.1 503 406.3 513.3 406.6 521.4 415.2 521.1 425.5 521.1 426.6 520.9 427.7 520.7 428.8"/>
    <path d="M472.7 373.1C492.8 384.6 499.5 410.2 488 430.3 479.9 444.4 462 449.2 447.9 441.1 438.1 435.4 434.7 422.9 440.3 413 444.3 406.1 453.1 403.7 459.9 407.7 464.7 410.5 466.4 416.6 463.6 421.5M383.5 408.3C370.9 417.3 368 434.7 377 447.3 383.3 456.1 395.5 458.1 404.3 451.9 410.5 447.5 411.9 438.9 407.5 432.8 404.4 428.5 398.4 427.5 394.1 430.6 391.1 432.8 390.4 436.9 392.5 440M442.3 296.3L418.7 296.3C415.6 296.3 412.7 299.5 412.7 302.6L412.7 303.5C412.7 306.6 415.3 308.8 418.4 308.8"/>
    <path d="M400.8 321.5L379.3 321.5C376.2 321.5 374.2 318.9 374.2 315.8L374.2 314.6C374.2 311.5 376.3 308.1 379.3 308.1L396.1 308.1C399.2 308.1 402.3 306.5 402.3 303.4L402.3 302.3C402.3 299.2 399.2 296.3 396.1 296.3L337.3 296.3C334.2 296.3 331.1 294.1 331.1 291L331.1 291.4C331.1 288.3 334.2 285.9 337.3 285.9L452.7 285.9M458.3 251.7L425 270.3M526.5 300.1L495.2 279 493 277.9C489.1 275.6 483.9 278.5 483.9 283L483.9 284.9 482.4 283.9C478.5 281.6 473.7 284.4 473.7 289L473.8 291 472.5 290.2C468.5 287.9 463.6 290.8 463.7 295.4L463.8 297.2 461.3 295.9C457.4 293.8 452.6 296.7 452.6 301.1L452.6 303.2 379.8 345.4"/>
    <path d="M544.4 324.7L511.2 324.7C508.4 324.7 506.1 327 506.1 329.8L506.1 330.7C506.1 334 508.8 336.6 512 336.6L531.9 336.6C534.8 336.6 537.2 339 537.2 341.9L537.2 342.6C537.2 345.8 534.6 348.5 531.3 348.5L427.6 348.5C424.2 348.5 421.6 345.4 421.6 342L421.6 342.1C421.6 339 424.5 336.7 427.6 336.7L486.1 336.7C488.9 336.7 491.3 334.4 491.3 331.5L491.3 329.7C491.3 326.2 488.4 323.4 485 323.4L476.5 323.4C473.2 323.4 470.6 320.7 470.6 317.5 470.6 314.2 473.3 311.6 476.5 311.6L567.2 311.6M346 321.5L360.1 321.5C363.3 321.5 365.2 319 365.2 315.7L365.2 315C365.2 311.8 363.3 308.2 360.1 308.2L340 308.2M430.8 246.3L424.4 250C422.8 250.9 420.8 250.9 419.2 249.9L415.6 247.7C414 246.7 411.9 246.7 410.3 247.7L406.5 250.1C404.9 251.1 402.9 251.1 401.3 250.2L397.1 247.8C395.5 246.9 393.6 246.9 392 247.8L388.1 250.1C386.6 251 384.6 251 383.1 250.2L378.5 247.6C376.5 246.5 374 246.8 372.4 248.4L341.8 268"/>
    <path d="M412.7 256.9L405.9 260.7C404.3 261.6 402.4 261.6 400.9 260.7L397 258.4C395.4 257.5 393.4 257.5 391.8 258.5L388.3 260.7C386.7 261.7 384.7 261.8 383.1 260.8L376.7 257.1M499 264.6L472.2 249.1C469.4 247.5 466 247.5 463.2 249L453.7 254.3C450.9 255.9 447.5 255.8 444.8 254.2L394.3 225.2C387.2 221.1 378.2 222.3 372.4 228.1L352.9 241.3M418.6 223.6L469 223.6C472.2 223.6 474.9 226.4 474.9 229.6L474.9 229.8C474.9 233 472.2 235.5 469 235.5L437.8 235.5M58.4 364.5L58.4 392.6M31.4 403.5L29.9 384.5M340.1 389.7L384.4 389.7C388.1 389.7 390.5 386.9 390.5 383.3 390.5 379.6 388 376.4 384.4 376.4L328.4 376.4C324.7 376.4 322.3 373.7 322.3 370L322.3 370.2C322.3 366.5 324.8 363 328.4 363L368.2 363M369.9 349.4L357.3 342.2C352.3 339.3 346.1 339.3 341.1 342.2L325.1 351.4"/>
    <polygon points="508.3 366 493.7 366.1 501.5 377.8"/>
    <path d="M226.9 159.2L296.6 120C301.2 117.4 306.8 117.4 311.4 120.1L396.2 168.8M509 208.8L465.2 208.8C461.5 208.8 458.6 205.7 458.6 202L458.6 201.5C458.6 197.8 461.6 193.9 465.2 193.9L538.3 193.9C542 193.9 544.7 191.9 544.7 188.2L544.7 187.6C544.7 183.9 542 180.6 538.3 180.6L393.3 180.6M490.8 156.9L393.4 156.9"/>
    <polyline points="505.5 256.5 495.1 251 484.9 257"/>
    <path d="M442.3 200.7C442.3 197 439.3 194 435.6 194L363 194C359.3 194 356.3 197 356.3 200.7 356.3 204.4 359.3 207.4 363 207.4L435.6 207.4C439.3 207.3 442.3 204.4 442.3 200.7zM552.9 393.3C552.9 389.6 549.9 386.6 546.2 386.6L521.1 386.6C517.4 386.6 514.4 389.6 514.4 393.3 514.4 397 517.4 400 521.1 400L546.2 400C549.9 400 552.9 397 552.9 393.3zM556 449.7C552.2 434.4 536.7 425.2 521.5 429M1049 167.3L1077.5 150.7M1091 152.1L1109 163 1121.1 156C1128.9 151.5 1138.5 151.5 1146.2 156L1157.6 162.6 1170.1 155.7C1177.8 151.5 1187.2 151.6 1194.8 156L1207 163 1218.1 156.4C1226 151.7 1235.9 151.7 1243.8 156.4L1254.9 163M1250.8 182.4L1176.3 182.4C1172.6 182.4 1170.4 186.9 1170.4 190.6L1170.4 191.1C1170.4 194.8 1172.6 197.2 1176.3 197.2L1212.7 197.2C1216.1 197.2 1218.6 200.6 1218.6 203.9L1218.6 205.6C1218.6 209 1216 210.8 1212.7 210.8L1140.1 210.8C1136.4 210.8 1133.3 214.7 1133.3 218.5L1133.3 219.6C1133.3 223.3 1136.3 225.7 1140.1 225.7L1221 225.7C1224.4 225.7 1227.3 229.1 1227.3 232.4L1227.3 233.9C1227.3 237.3 1224.3 239.3 1221 239.3L1150 239.3C1146.6 239.3 1143.3 242.7 1143.3 246.1L1143.3 246.7C1143.3 250.1 1146.7 251.7 1150 251.7L1180.4 251.7M1263.2 182.4L1315.1 182.4M1301.5 307.3L1218 307.3C1214.6 307.3 1212.4 310.6 1212.4 314L1212.4 313.8C1212.4 317.2 1214.6 319.7 1218 319.7L1267.7 319.7C1271.6 319.7 1275.5 323.2 1275.5 327.1L1275.5 327.4C1275.5 331.3 1271.6 333.4 1267.7 333.4L1229.7 333.4M1203.4 383.1L1215 375.5 1223.8 380.6C1225.9 381.8 1228.5 381.8 1230.6 380.6L1239.4 375.5 1248.2 380.6C1250.3 381.8 1252.9 381.8 1255 380.6L1263.8 375.5 1272.6 380.6M1008.3 386.5L1017.1 381.4 1025.9 386.5C1028 387.7 1030.6 387.7 1032.7 386.5L1041.5 381.4 1052.1 387.4M1022.5 412.5L1034.1 404.9 1042.9 410C1045 411.2 1047.6 411.2 1049.7 410L1058.5 404.9 1067.3 410C1069.4 411.2 1072 411.2 1074.1 410L1082.9 404.9 1091.7 410C1093.8 411.2 1096.4 411.2 1098.5 410L1107.3 404.9 1116.1 410C1118.2 411.2 1120.8 411.2 1122.9 410L1131.7 404.9 1140.5 410M1073 249.7L1012.2 215.5M1146.9 195.4L1135.8 188.8C1127.9 184.1 1118 184.1 1110.1 188.8L1099 195.4 1086.8 188.4C1079.2 184 1069.8 183.9 1062.1 188.1L1049.6 195M1049.5 195.4L1038.4 188.8C1030.5 184.1 1020.6 184.1 1012.7 188.8"/>
    <polygon points="1109 298.4 1109 313.1 1120.9 305.2"/>
    <path d="M1084.8 203.3L1099 195.4M1077.2 380.4C1069.3 369.4 1071.8 352.9 1084.7 345.5L1141.5 312.7C1148.8 308.5 1148.8 297.9 1141.5 293.7L1125.5 284.5C1118.4 280.4 1118.2 270.1 1125.3 265.8 1128.7 263.8 1128.6 258.9 1125.2 256.9L1066.2 222.3M1121.5 225.9L1096.9 240.1M1348.9 137L1313.9 157.8M1396.9 164.7L1348.9 137M1272.2 232.1C1270.2 231 1267.9 230.4 1265.4 230.5 1258 230.7 1252.2 236.8 1252.4 244.1 1252.4 244.9 1252.5 245.7 1252.7 246.4 1249.6 245 1246 244.3 1242.4 244.4 1229.4 244.8 1219.3 255.4 1219.6 268.1 1220 280.8 1230.8 290.8 1243.8 290.5 1252.5 290.2 1259.9 285.4 1263.8 278.3"/>
    <path d="M1287.2 206.5C1272.7 214.7 1267.9 232.7 1276.2 246.9 1282 256.8 1294.9 260.3 1305 254.5 1312.1 250.5 1314.5 241.6 1310.4 234.7 1307.6 229.8 1301.2 228.2 1296.3 231 1292.8 233 1291.6 237.3 1293.6 240.7M1364.8 285.4C1366.6 283.4 1368 281.1 1369 278.4 1372.1 270.2 1368 260.9 1359.7 257.6 1353.9 255.3 1347.5 258.1 1345.3 263.9 1343.8 267.9 1345.8 272.5 1349.8 274.1 1352.6 275.2 1355.8 273.9 1356.9 271M1232.4 288C1244 293.8 1258.1 289.3 1264 277.9 1268.1 270 1264.9 260.2 1256.8 256.2 1251.1 253.4 1244.2 255.6 1241.3 261.1 1239.3 265 1240.9 269.8 1244.8 271.7 1247.6 273.1 1251 272 1252.4 269.3"/>
    <path d="M1377.1 253.8C1374.2 239.4 1361.5 228.5 1346.2 228.5 1341.3 228.5 1336.6 229.6 1332.4 231.7 1331.9 215.5 1318.6 202.6 1302.3 202.6 1285.7 202.6 1272.2 216.1 1272.2 232.7M1265 278.8C1270.9 288.9 1281.8 295.7 1294.4 295.7 1306.1 295.7 1316.4 289.8 1322.5 280.8 1328.3 287.4 1336.7 291.5 1346.2 291.5 1353.1 291.5 1358.5 290.1 1365 285.4M1272.1 353.6C1261.5 359.9 1248.4 360 1237.7 353.8L1228.5 348.4C1223.9 345.7 1218.2 345.7 1213.6 348.5L1185.6 365.5M1206.2 261L1194.2 268M1338.6 157.6L1338.6 185.4 1341.1 184C1347.1 181 1354.1 180.7 1360.3 183.2L1363.3 184.4 1363.3 157.6"/>
    <polyline points="1377.2 165.5 1351.1 150.8 1326.4 165"/>
    <polyline points="1240 404 1245.9 400.4 1245.9 416.4 1218.3 400 1205.3 408.3 1218.7 416.4 1230.8 408.7"/>
    <path d="M1260.7 210.8L1237 210.8C1233.5 210.8 1232.2 209.2 1232.2 205.7L1232.2 205.5C1232.2 202 1233.4 198.4 1237 198.4L1269.3 198.4M1071.3 339L1013.6 307.5C1010.5 305.7 1006.6 305.8 1003.5 307.6L988.3 316.5M1030.8 292.2L1047.8 302M1040.8 250.8L1030.5 245"/>
    <polyline points="1051 280.7 1061.1 274.8 1071.2 280.6"/>
    <polyline points="1051.4 268.3 1061.6 263 1061.6 308.5"/>
    <path d="M1071.4,268.9 L1061.1,263"/>
    <polyline points="1051 292.1 1061.3 286.1 1071.4 292.3"/>
    <polyline points="1020.5 262.6 1030.7 256.7 1040.8 262.5"/>
    <polyline points="1020.5 250 1030.7 245 1030.7 290"/>
    <polyline points="1020.5 274 1030.8 268 1041 274.2"/>
    <path d="M1151.9,458.1 L1108.3,458.1 C1104.3,458.1 1101.2,455.3 1101.2,451.3 L1101.2,450.2 C1101.2,446.2 1104.3,443.3 1108.3,443.3 L1167.1,443.3 C1171.1,443.3 1174.1,439.9 1174.1,435.9 L1174.1,434.7 C1174.1,430.7 1170.9,427.5 1167,427.5 L1154.3,427.2 L1041.6,427.2 C1037.6,427.2 1034.4,430.4 1034.4,434.4 L1034.4,435.9 C1034.4,439.9 1037.7,443.3 1041.6,443.3 L1075.8,443.3 C1079.8,443.3 1082.6,446.3 1082.6,450.2 L1082.6,451.7 C1082.6,455.7 1079.8,458.1 1075.8,458.1 L987.4,458.1"/>
    <polygon points="1401.6 371.5 1389.5 378.5 1377.7 371.5 1389.7 364.4"/>
    <path d="M1310.9,410.2 L1338.7,424.8 L1349.2,420.4 C1350.2,420 1351.4,420.7 1351.4,421.9 L1351.3,448.6 L1362.5,455.5"/>
    <polygon points="1312.6 353.1 1299 360.6 1285.4 353.1 1285.4 337.8 1298.8 330.2 1312.6 337.8"/>
    <path d="M1297.8,403.7 L1297.8,360.4"/>
    <polyline points="1325.7 331 1312.3 323.7 1312.4 307.8 1325.3 300 1338.5 307.7 1338.6 322.9 1326.2 330.2 1326.2 402.5"/>
    <polygon points="1348.5 323 1348.5 338.6 1360.9 346.1 1374.3 338.5 1374.4 323 1361.4 315.7"/>
    <polyline points="1265.5 423.2 1299 403.6 1312 395.8 1339 410.7 1351.4 402.7 1364.6 411.1 1364.6 441.3 1377.7 449.5 1433.8 449.5"/>
    <polygon points="1338.5 337.9 1338.3 353.1 1326 345"/>
    <polygon points="1286.6 379.6 1286.8 364.5 1299 372.5"/>
    <path d="M1379.4 403.7L1379.4 371.6M1359.6 345.6L1359.6 379M1007.2 364.1L1028.5 364.1C1032.1 364.1 1036.9 361.6 1036.9 358L1036.9 357C1036.9 353.4 1032.2 349.3 1028.5 349.3L1010.9 349.3M1151.3 325.8C1155.7 328.4 1155.7 334.7 1151.3 337.3L1137.5 345.4C1121.8 354.6 1121.9 377.4 1137.7 386.5L1173.8 407.4"/>
    <path d="M1173.5,393.6 L1161.3,386.4 C1145.6,377.2 1145.7,354.4 1161.5,345.3 L1167.4,341.9 C1175.4,337.3 1175.3,325.8 1167.4,321.3 L1159.8,317 C1155.4,314.5 1155.3,308.1 1159.7,305.5 L1163.5,303.3 C1167.9,300.7 1167.9,294.4 1163.4,291.8 L1138.8,276.8"/>
    <path d="M1197.5 393.7L1178 382.2C1165.4 374.8 1165.5 356.6 1178.1 349.3L1191.1 341.8C1199.1 337.2 1199 325.6 1191 321.1L1183.3 316.5C1178.9 313.9 1179 307.6 1183.4 305M1126 338L1113.7 345.2C1098 354.4 1098 377.1 1113.7 386.3L1114.1 386.5M1197 311.1C1202.4 308.2 1202.6 300.4 1197.4 297.2L1185.8 290.1 1173.2 283.4C1167.7 280.5 1167.8 272.5 1173.4 269.7L1194.3 259.4"/>
    <polyline points="1067.1 318.6 1084.1 328.2 1100.3 318.6"/>
    <polyline points="1045.7 358.8 1056.7 353 1056.7 362.9"/>
    <path d="M1405.1,229.3 L1372.8,203.5 C1360.3,193.5 1342.6,193 1329.6,202.4 L1321.9,207.9"/>
    <polyline points="1341.9 382.6 1379.4 403.2 1379.4 426.2 1392 434.6 1410.3 434.6"/>
    <path d="M1412.8 376.5L1427.6 376.5C1432.3 376.5 1436.3 381.3 1436.3 386L1436.3 385.9C1436.3 390.6 1432.3 392.6 1427.6 392.6L1394.2 392.6M1381.9 348.1L1456.7 348.1C1460.3 348.1 1463.5 346.5 1463.5 343L1463.5 341.7C1463.5 337.9 1460 333.3 1456.2 333.3L1393 333.3C1389.2 333.3 1385.6 331.6 1385.6 327.8L1385.6 328C1385.6 324.2 1389.2 321 1393 321L1423.3 321C1426.8 321 1429.9 318.7 1430.4 315.2 1431 311 1427.8 307.4 1423.7 307.4L1355.9 307.4"/>
    <polyline points="1310 436 1295 429.1 1265.1 445.5 1232.8 426.3 1198.9 443.4"/>
  </g>
</svg>
