<?xml version="1.0" encoding="utf-8"?>
<!-- Generator: Adobe Illustrator 20.0.0, SVG Export Plug-In . SVG Version: 6.00 Build 0)  -->
<svg version="1.1" id="Layer_1" xmlns="http://www.w3.org/2000/svg" xmlns:xlink="http://www.w3.org/1999/xlink" x="0px" y="0px"
	 width="23px" height="23px" viewBox="0 0 23 23" style="enable-background:new 0 0 23 23;" xml:space="preserve">
<style type="text/css">
	.st0{fill:none;stroke:#886BAA;stroke-width:2;stroke-linecap:round;stroke-linejoin:round;}
	.st1{fill:none;stroke:#886BAA;stroke-width:1.3;stroke-linecap:round;stroke-linejoin:round;}
	.st2{fill:#886BAA;}
	.st3{fill:none;stroke:#886BAA;stroke-linecap:round;stroke-linejoin:round;}
</style>
<g id="Page-1">
	<g id="www-kafka" transform="translate(-650 -120)">
		<g id="hero" transform="translate(-287 -68)">
			<g id="copy" transform="translate(443 190)">
				<g id="logo_kafka" transform="translate(496)">
					<path id="Stroke-1" class="st0" d="M11.2,0v19.1"/>
					<path id="Stroke-3" class="st1" d="M7.6,8.6l-6.4-3"/>
					<path id="Stroke-5" class="st1" d="M1.2,13.4l6.4-3.1"/>
					<path id="Fill-7" class="st2" d="M-0.5,13.4c0,1,0.8,1.7,1.7,1.7s1.7-0.8,1.7-1.7c0-1-0.8-1.7-1.7-1.7S-0.5,12.5-0.5,13.4"/>
					<path id="Stroke-9" class="st3" d="M-0.5,13.4c0,1,0.8,1.7,1.7,1.7s1.7-0.8,1.7-1.7c0-1-0.8-1.7-1.7-1.7S-0.5,12.5-0.5,13.4z"
						/>
					<path id="Fill-11" class="st2" d="M-0.5,5.6c0,1,0.8,1.7,1.7,1.7s1.7-0.8,1.7-1.7S2.2,3.9,1.2,3.9S-0.5,4.6-0.5,5.6"/>
					<path id="Stroke-13" class="st3" d="M-0.5,5.6c0,1,0.8,1.7,1.7,1.7s1.7-0.8,1.7-1.7S2.2,3.9,1.2,3.9S-0.5,4.6-0.5,5.6z"/>
					<path id="Fill-15" class="st2" d="M8,3.4c-1,0-1.7-0.8-1.7-1.7S7,0,8,0V3.4z"/>
					<path id="Stroke-17" class="st3" d="M8,3.4c-1,0-1.7-0.8-1.7-1.7S7,0,8,0V3.4z"/>
					<path id="Fill-19" class="st2" d="M8,15.6c-1,0-1.7,0.8-1.7,1.7S7,19,8,19V15.6z"/>
					<path id="Stroke-21" class="st3" d="M8,15.6c-1,0-1.7,0.8-1.7,1.7S7,19,8,19V15.6z"/>
					<path id="Fill-23" class="st2" d="M8,12.9C6.6,12.4,5.7,11,5.7,9.5s1-2.9,2.3-3.4V12.9z"/>
					<path id="Stroke-25" class="st3" d="M8,12.9C6.6,12.4,5.7,11,5.7,9.5s1-2.9,2.3-3.4V12.9z"/>
					<path id="Stroke-27" class="st0" d="M11.3,8.6l8.2-3.8"/>
					<path id="Stroke-29" class="st0" d="M19.5,14.3l-8.2-4.1"/>
				</g>
			</g>
		</g>
	</g>
</g>
</svg>
