<?xml version="1.0" encoding="utf-8"?>
<!-- Generator: Adobe Illustrator 19.2.0, SVG Export Plug-In . SVG Version: 6.00 Build 0)  -->
<svg version="1.1" id="Layer_1" xmlns:sketch="http://www.bohemiancoding.com/sketch/ns"
	 xmlns="http://www.w3.org/2000/svg" xmlns:xlink="http://www.w3.org/1999/xlink" x="0px" y="0px" viewBox="0 0 23 23"
	 style="enable-background:new 0 0 23 23;" xml:space="preserve">
<style type="text/css">
	.st0{fill:none;stroke:#876AAA;stroke-width:1.5;stroke-linecap:round;stroke-linejoin:round;stroke-miterlimit:10;}
	.st1{fill:none;stroke:#876AAA;stroke-width:2;stroke-linecap:round;stroke-linejoin:round;stroke-miterlimit:10;}
	.st2{fill:#876AAA;}
	.st3{opacity:0.3357;fill:#876AAA;enable-background:new    ;}
	.st4{fill:none;stroke:#876AAA;stroke-width:2;stroke-linecap:round;stroke-linejoin:round;}
	.st5{fill:none;stroke:#876AAA;stroke-linecap:round;stroke-linejoin:round;}
	.st6{fill:none;stroke:#876AAA;stroke-linecap:round;stroke-linejoin:round;stroke-miterlimit:10;}
	.st7{fill:none;stroke:#876AAA;stroke-linecap:round;stroke-miterlimit:10;}
</style>
<g>
	<path class="st2" d="M10.8,1.7c-4-0.5-7,2.1-7,6c0,2.5,1.3,4.5,3.3,5.4l-4,6.8c-0.2,0.3-0.2,0.7,0,1c0.2,0.3,0.5,0.5,0.9,0.5h6.9
		v-8.7v-2.1L10.8,1.7z"/>
	<path class="st2" d="M19.9,20l-3.6-7.2c1.8-1.1,3-3,3-5.2c0-3.3-2.7-6.1-6.1-6.1c-0.3,0-0.5,0-0.8,0.1v2c0.3,0,0.5-0.1,0.8-0.1
		c2.2,0,4.1,1.8,4.1,4.1s-1.8,4.1-4.1,4.1c-0.3,0-0.5,0-0.8-0.1v2c0.3,0,0.5,0.1,0.8,0.1c0.4,0,0.8,0,1.2-0.1l3.7,7.3
		c0.2,0.3,0.5,0.5,0.9,0.5c0.2,0,0.3,0,0.5-0.1C20,21.1,20.2,20.5,19.9,20z"/>
</g>
</svg>
