<svg xmlns="http://www.w3.org/2000/svg" viewBox="0 0 48 48"><path d="M23.9979774,41.2037521 C34.3975615,35.7490445 40.79037,25.3358263 41.4444087,12.0986046 C34.6217077,11.9504818 28.5120139,10.2725373 23.6766969,7.0795501 C18.8315225,10.3601 13.1060085,12.0784601 6.55551943,12.2450204 C7.20766462,25.4395625 13.5740042,35.7430981 23.9979774,41.2037521 Z M23.9980772,46 C10.5650462,39.5615209 1.91222067,26.2150902 2.00067178,8.30434414 C10.6073489,8.61484179 17.8180369,6.51339374 23.6327356,2 C29.4474344,6.50469981 37.381114,8.43847913 45.9993282,8.14040139 C46.0877793,26.0511474 37.4349538,39.5615209 23.9980772,46 Z M23.9849416,35.3792659 C30.6279961,31.0999599 34.2600372,25.1296681 35.4636403,16.1923741 C30.7997557,16.1337707 27.2078035,15.1452323 23.7916564,12.7530767 C20.6147551,15.0119003 17.1096358,16.035907 12.4552174,16.0471988 C13.2772235,24.6607641 17.2680245,31.1660645 23.9849416,35.3792659 Z M23.9984694,37.3333333 C16.1432671,32.7813243 11.1411625,25.1738571 10.6666667,14.3363342 C16.5412314,14.6294088 20.3249531,13.4789353 23.7811197,10.6666667 C27.9811732,13.9933746 32.217962,14.6886473 37.3333333,14.5015784 C36.2925037,25.5635839 31.9669384,32.5474882 23.9984694,37.3333333 Z" fill="#876AAA" /></svg>
