<svg id="Layer_1" xmlns="http://www.w3.org/2000/svg" width="23" height="23" viewBox="0 0 23 23"><style>.st0{stroke-width:2}.st0,.st1{fill:none;stroke:#876aaa;stroke-linecap:round;stroke-linejoin:round;stroke-miterlimit:10}</style><path class="st0" d="M4.2 5.7L10 2.3c.9-.5 1.9-.5 2.8 0l5.9 3.4c.9.4 1.5 1.3 1.5 2.3v6.8c0 1-.5 1.9-1.4 2.4L13 20.7c-.9.5-1.9.5-2.8 0l-5.9-3.4c-.9-.4-1.5-1.3-1.5-2.3V8.2c0-1 .5-2 1.4-2.5z"/><path class="st1" d="M6.3 12.4l1.4-.8c.2-.1.5-.1.7 0l1.4.8c.2.1.3.3.3.6v1.6c0 .2-.1.5-.3.6l-1.4.8c-.2.1-.5.1-.7 0l-1.4-.8c-.2-.2-.3-.4-.3-.6V13c0-.3.1-.5.3-.6zM9.7 6.6l1.4-.8c.2-.1.5-.1.7 0l1.4.8c.2.1.3.3.3.6v1.6c0 .2-.1.5-.3.6l-1.4.8c-.2.1-.5.1-.7 0l-1.4-.8c-.2-.2-.3-.4-.3-.6V7.2c0-.3.1-.5.3-.6zM13.2 12.3l1.4-.8c.2-.1.5-.1.7 0l1.4.8c.2.1.3.3.3.6v1.6c0 .2-.1.5-.3.6l-1.4.8c-.2.1-.5.1-.7 0l-1.4-.8c-.2-.1-.3-.3-.3-.6v-1.6c0-.2.1-.4.3-.6z"/></svg>