<svg xmlns="http://www.w3.org/2000/svg" width="23" height="23" viewBox="0 0 23 23">
  <g fill="#876AAA">
    <path d="M17.25,1.56818182 C13.6954545,-0.522727273 9.30454545,-0.522727273 5.75,1.56818182 C2.19545455,3.65909091 0,7.42272727 0,11.5 C0,15.5772727 2.19545455,19.4454545 5.75,21.4318182 C7.52727273,22.4772727 9.51363636,23 11.5,23 C13.4863636,23 15.4727273,22.4772727 17.25,21.4318182 C20.8045455,19.3409091 23,15.5772727 23,11.5 C23,7.42272727 20.8045455,3.55454545 17.25,1.56818182 Z M16.3,19.9 C13.3,21.6 9.6,21.6 6.6,19.9 C3.6,18.2 1.8,15 1.8,11.5 C1.8,8.1 3.7,4.8 6.6,3.1 C8.1,2.2 9.8,1.8 11.4,1.8 C13,1.8 14.8,2.2 16.2,3.1 C19.2,4.8 21,8 21,11.5 C21.2,14.9 19.3,18.2 16.3,19.9 Z"/>
    <path d="M18.9,14 L16.8,12.6 C17.2,12 17.7,11 17.7,10 C17.7,8.9 17.4,8.1 16.8,7.6 C16.1,6.9 15.2,6.9 15.2,6.9 C15.2,6.9 14.8,6.9 14.4,7 C14.2,6.5 13.9,6.1 13.6,5.7 C12.7,4.8 11.5,4.8 11.5,4.8 C11.5,4.8 10.3,4.8 9.3,5.7 C9,6.1 8.7,6.5 8.5,7 C8.2,6.9 7.8,6.9 7.8,6.9 C7.7,6.9 6.8,6.9 6.1,7.6 C5.6,8.1 5.3,8.9 5.3,10 C5.3,11 5.8,11.9 6.2,12.6 L4.1,14 C3.4,14.4 3.3,15.3 3.7,16 C4.5,17.3 5.6,18.4 7,19.2 C8.4,20 10,20.4 11.6,20.4 C13.2,20.4 14.8,20 16.2,19.2 C17.5,18.4 18.7,17.3 19.5,16 C19.8,15.3 19.6,14.4 18.9,14 Z M18.3,15.3 C17.6,16.4 16.6,17.4 15.5,18 C13.1,19.4 10,19.4 7.6,18 C6.5,17.3 5.5,16.4 4.8,15.3 C4.8,15.2 4.8,15.1 4.9,15.1 L7,13.7 C7.6,13.3 7.8,12.6 7.4,12 C7,11.5 6.6,10.7 6.6,10 C6.6,9.3 6.8,8.8 7.1,8.5 C7.4,8.2 7.8,8.2 7.9,8.2 C7.9,8.2 8.1,8.2 8.3,8.3 C8.3,8.5 8.3,8.7 8.3,9 C8.3,10.4 9,11.7 9.6,12.6 C9.6,12.7 9.5,12.8 9.5,12.8 C9.5,12.8 9.5,12.8 9.4,12.9 L6.8,15.2 C6.5,15.4 6.5,15.8 6.7,16.1 C6.9,16.4 7.3,16.4 7.6,16.2 L10.2,13.9 C10.9,13.4 11.1,12.6 10.6,11.9 C10.2,11.3 9.5,10.2 9.5,9.1 C9.5,8.1 9.7,7.3 10.2,6.8 C10.7,6.3 11.4,6.3 11.5,6.3 C11.5,6.3 12.2,6.3 12.7,6.8 C13.2,7.3 13.4,8 13.4,9.1 C13.4,10.2 12.7,11.3 12.3,11.9 C11.9,12.5 12,13.3 12.7,13.9 L15.5,16.2 C15.6,16.3 15.8,16.3 15.9,16.3 C16.1,16.3 16.3,16.2 16.4,16.1 C16.6,15.8 16.6,15.4 16.3,15.2 L13.4,12.8 C13.3,12.7 13.2,12.6 13.2,12.6 C13.8,11.7 14.5,10.4 14.5,9 C14.5,8.8 14.5,8.5 14.5,8.3 C14.7,8.2 15,8.2 15,8.2 C15,8.2 15.4,8.2 15.8,8.5 C16.1,8.8 16.3,9.3 16.3,10 C16.3,10.7 15.8,11.5 15.6,11.9 C15.2,12.5 15.4,13.2 16,13.6 L18.1,15 C18.3,15.1 18.3,15.2 18.3,15.3 Z"/>
  </g>
</svg>
